# Blender v2.81 (sub 16) OBJ File: ''
# www.blender.org
mtllib grassUnit.mtl
o Plane
v -0.267890 0.014561 0.521561
v 0.308658 0.014562 -0.530861
v 0.308657 1.214561 -0.530861
v -0.505827 0.014562 -0.292923
v 0.546595 0.014561 0.283624
v -0.505827 1.214561 -0.292923
v -0.267890 1.214560 0.521561
v 0.546595 1.214560 0.283624
vt 0.000100 0.000100
vt 0.999900 0.000100
vt 0.999900 0.999900
vt 0.000100 0.000100
vt 0.999900 0.000100
vt 0.000100 0.999900
vt 0.000100 0.999900
vt 0.999900 0.999900
vn 0.8770 0.0000 0.4805
vn -0.4805 -0.0000 0.8770
usemtl Material.001
s 1
f 1/1/1 2/2/1 3/3/1
f 4/4/2 5/5/2 6/6/2
f 7/7/1 1/1/1 3/3/1
f 5/5/2 8/8/2 6/6/2
